<?xml version="1.0" encoding="UTF-8"?>
<svg version="1.1" xmlns="http://www.w3.org/2000/svg" width="600" height="530">
<path d="M0 0 C17.87376354 14.07658572 35.44145806 30.11635417 50.17285156 47.47314453 C52.0394212 49.6318729 53.96817781 51.72628433 55.90991211 53.81738281 C60.62190024 58.89577873 65.13759536 64.07226537 69.48144531 69.47314453 C71.34033143 71.77267712 73.21587432 74.05040501 75.11425781 76.31689453 C84.13281616 87.10723133 92.64292815 98.22044266 100.96972656 109.55126953 C101.82679199 110.71408447 101.82679199 110.71408447 102.70117188 111.90039062 C155.96972656 184.32151039 155.96972656 184.32151039 155.96972656 198.55126953 C156.62972656 198.55126953 157.28972656 198.55126953 157.96972656 198.55126953 C158.20304687 197.74431641 158.43636719 196.93736328 158.67675781 196.10595703 C160.27726072 191.70578287 162.38866816 187.76382075 164.65722656 183.67626953 C165.13200439 182.81710938 165.60678223 181.95794922 166.09594727 181.07275391 C174.63756819 165.8185938 184.0328973 150.93688107 193.96972656 136.55126953 C194.45199707 135.85179199 194.93426758 135.15231445 195.43115234 134.43164062 C207.55417922 116.88201264 220.00315377 99.67363478 233.59326172 83.22753906 C235.43583718 80.98363642 237.23434338 78.70605955 239.03222656 76.42626953 C246.73259338 66.78463376 254.87944641 57.52023321 263.26660156 48.47314453 C265.05910728 46.53558055 266.84053857 44.58770832 268.61035156 42.62939453 C277.49645749 32.80790904 286.61836188 22.98085623 296.75488281 14.43017578 C298.58181918 12.88034087 300.37055339 11.30339977 302.15332031 9.70361328 C331.19795386 -16.20191255 369.48560114 -41.56525315 409.96972656 -39.44873047 C419.27182747 -38.45855181 428.04268577 -34.37846334 434.37988281 -27.44482422 C447.06425184 -11.5192405 448.46222126 8.1779507 447.64941406 27.76220703 C447.5797065 29.51724548 447.5797065 29.51724548 447.5085907 31.30773926 C446.94164832 44.56253301 445.98211204 57.78557009 444.94248581 71.01057816 C444.7792521 73.08914544 444.61768497 75.16783766 444.45632935 77.24655151 C442.8355578 98.05837038 440.98805451 118.84290349 438.90722656 139.61376953 C438.73074081 141.40766113 438.73074081 141.40766113 438.5506897 143.23779297 C437.34404691 155.41365688 435.94600769 167.53010076 433.98535156 179.60986328 C433.83271347 180.56723892 433.68007538 181.52461456 433.52281189 182.51100159 C429.86369003 204.00072603 419.640457 222.66919438 404.96972656 238.55126953 C404.35355469 239.23705078 403.73738281 239.92283203 403.10253906 240.62939453 C375.47575724 269.97458862 332.92275981 275.32408155 294.96972656 276.55126953 C295.67766357 276.77153809 296.38560059 276.99180664 297.11499023 277.21875 C328.25573295 287.00289419 362.01424115 299.76891127 378.28222656 330.42626953 C385.54168004 346.01332496 386.44790197 363.34201727 380.69726562 379.62548828 C374.05014002 397.22029592 364.01773595 411.1130393 350.96972656 424.55126953 C350.40092773 425.14584961 349.83212891 425.74042969 349.24609375 426.35302734 C328.11333327 448.3952127 300.3556434 470.50453085 268.66503906 472.78955078 C248.74019299 473.20374342 232.0780139 466.65953314 216.96972656 453.55126953 C216.12152344 452.88740234 215.27332031 452.22353516 214.39941406 451.53955078 C210.78793628 448.58417748 207.95549209 445.12174748 204.96972656 441.55126953 C204.35097656 440.83197266 203.73222656 440.11267578 203.09472656 439.37158203 C184.88896709 417.56871685 157.96972656 374.55177803 157.96972656 345.55126953 C157.30972656 345.55126953 156.64972656 345.55126953 155.96972656 345.55126953 C155.71775513 346.54114868 155.71775513 346.54114868 155.46069336 347.55102539 C153.61776841 354.57042853 151.35878568 361.33209246 148.78222656 368.11376953 C148.38567871 369.16024658 147.98913086 370.20672363 147.58056641 371.28491211 C135.83994788 401.93836986 121.40286153 429.30926943 97.96972656 452.55126953 C97.39351562 453.12490234 96.81730469 453.69853516 96.22363281 454.28955078 C82.50492399 467.05777169 64.78789006 473.21316608 46.15722656 472.82080078 C21.26620073 471.63801093 -0.76108882 457.3883336 -19.03027344 441.55126953 C-19.80113281 440.89126953 -20.57199219 440.23126953 -21.36621094 439.55126953 C-43.04521977 420.53712225 -68.05951674 395.12724164 -70.17138672 364.50512695 C-70.63300835 353.86811199 -70.18663998 344.51834588 -66.03027344 334.55126953 C-65.67964844 333.68373047 -65.32902344 332.81619141 -64.96777344 331.92236328 C-54.70033614 309.14148678 -30.53151746 294.33852006 -8.03027344 285.55126953 C0.89796806 282.33777234 9.92409019 279.41483785 18.96972656 276.55126953 C18.38819824 276.53668701 17.80666992 276.52210449 17.20751953 276.50708008 C-24.48128549 275.35290948 -63.76836658 267.08294345 -93.84667969 236.03955078 C-109.36019535 218.36135851 -117.98498022 196.33430781 -121.01464844 173.25048828 C-121.26952026 171.35103455 -121.26952026 171.35103455 -121.52954102 169.41320801 C-123.31676031 155.82168675 -124.72016618 142.19609348 -126.03027344 128.55126953 C-126.15622894 127.25519775 -126.28218445 125.95912598 -126.41195679 124.6237793 C-138.82845998 -3.25003936 -138.82845998 -3.25003936 -121.84667969 -25.36669922 C-89.41216528 -62.54432541 -28.93183636 -22.39548713 0 0 Z " fill="#FEFEFF" transform="translate(143.0302734375,48.44873046875)"/>
</svg>
